<?xml version="1.0" encoding="iso-8859-1"?>
<!-- Generator: Adobe Illustrator 19.0.0, SVG Export Plug-In . SVG Version: 6.00 Build 0)  -->
<svg version="1.1" id="Layer_1" xmlns="http://www.w3.org/2000/svg" xmlns:xlink="http://www.w3.org/1999/xlink" x="0px" y="0px"
	 viewBox="0 0 512.002 512.002" style="enable-background:new 0 0 512.002 512.002;" xml:space="preserve">
<path style="fill:#FF9E16;" d="M18.618,332.442c-5.763,0-10.435-4.671-10.435-10.435v-92.954c0-34.299,27.901-62.198,62.198-62.198
	h40.933c5.763,0,10.433,4.67,10.433,10.435c0,5.76-4.67,10.435-10.433,10.435H70.382c-22.789,0-41.329,18.541-41.329,41.33v92.954
	C29.051,327.771,24.381,332.442,18.618,332.442z"/>
<path style="fill:#B36F0F;" d="M182.599,217.126c-23.411,0-42.388,18.978-42.388,42.388v41.966h-3.99
	c-19.987,0-36.192,16.202-36.192,36.192v65.626c0,16.303,13.218,29.521,29.52,29.521h53.314c4.672,0,8.457-3.789,8.457-8.458
	c0-18.143-13.604-33.093-31.167-35.244v-37.793h15.233c27.394,0,49.599-22.205,49.599-49.6v-42.212
	C224.987,236.105,206.01,217.126,182.599,217.126z"/>
<path id="SVGCleanerId_0" style="fill:#B36F0F;" d="M385.671,388.989V257.84c0-16.305-13.218-29.521-29.518-29.521
	c-16.304,0-29.52,13.215-29.52,29.521v145.459c0,16.303,13.216,29.521,29.52,29.521h53.312c4.672,0,8.458-3.789,8.458-8.458
	C417.923,405.842,403.756,390.644,385.671,388.989z"/>
<g>
	<path id="SVGCleanerId_0_1_" style="fill:#B36F0F;" d="M385.671,388.989V257.84c0-16.305-13.218-29.521-29.518-29.521
		c-16.304,0-29.52,13.215-29.52,29.521v145.459c0,16.303,13.216,29.521,29.52,29.521h53.312c4.672,0,8.458-3.789,8.458-8.458
		C417.923,405.842,403.756,390.644,385.671,388.989z"/>
</g>
<g>
	<path style="fill:#FF9E16;" d="M377.483,150.296H145.065c-40.762,0-73.803,33.041-73.803,73.802v86.436h244.974
		c49.244,0,89.163-39.92,89.163-89.165V178.21C405.398,162.795,392.899,150.296,377.483,150.296z"/>
	<path style="fill:#FF9E16;" d="M501.009,143.688l-66.373-53.662h-37.451c-37.487,0-67.876,30.39-67.876,67.877
		s30.389,67.874,67.876,67.874h37.451c37.488,0,67.876-30.388,67.876-67.874C502.513,153.026,501.988,148.273,501.009,143.688z"/>
</g>
<path style="fill:#E8E8E8;" d="M492.078,148.434h-92.964c-24.493,0-44.347,19.853-44.347,44.346c0,3.441,0.405,6.784,1.146,10
	c-0.742,3.213-1.146,6.559-1.146,9.997c0,20.678,14.15,38.049,33.295,42.959c-2.119-5.176-3.295-10.842-3.295-16.779
	c0-0.5,0.022-0.994,0.037-1.49c5.612,5.816,12.791,10.113,20.866,12.184c-1.624-3.968-2.689-8.224-3.1-12.669
	c3.462-0.266,6.814-0.925,10.008-1.941v0.004l63.812-15.103c15.758-3.961,27.428-18.218,27.428-35.203v-24.567
	C503.816,153.69,498.56,148.434,492.078,148.434z"/>
<g>
	<path style="fill:#333E48;" d="M503.816,144.901c0-1.951-1.582-3.532-3.533-3.532l-6.152,0.075
		c-6.482,0.026-7.958,3.717-3.275,8.201l5.223,5.002c2.167,2.076,4.94,3.154,7.736,3.249L503.816,144.901L503.816,144.901z"/>
	<path style="fill:#333E48;" d="M359.106,79.182c-8.822,0-15.974,7.151-15.974,15.974s7.152,15.975,15.974,15.975h9.744
		c3.441,0,6.231-2.792,6.231-6.234v-9.742C375.081,86.333,367.929,79.182,359.106,79.182z"/>
</g>
<path style="fill:#FF9C9F;" d="M360.955,107.713c-5.904,0-10.708-4.803-10.708-10.706c0-5.905,4.804-10.707,10.708-10.707
	s10.708,4.802,10.708,10.707v9.742c0,0.53-0.433,0.965-0.967,0.965C370.697,107.713,360.955,107.713,360.955,107.713z"/>
<g>
	<path style="fill:#FF9E16;" d="M125.083,217.126c-23.41,0-42.388,18.978-42.388,42.388v41.966h-3.989
		c-19.989,0-36.192,16.202-36.192,36.192v65.626c0,16.303,13.217,29.521,29.52,29.521h53.313c4.672,0,8.458-3.789,8.458-8.458
		c0-18.143-13.605-33.093-31.167-35.244v-37.793h15.233c27.394,0,49.6-22.205,49.6-49.6v-42.212
		C167.471,236.105,148.494,217.126,125.083,217.126z"/>
	<path style="fill:#FF9E16;" d="M328.156,388.989V257.84c0-16.305-13.217-29.521-29.518-29.521
		c-16.304,0-29.521,13.215-29.521,29.521v145.459c0,16.303,13.217,29.521,29.521,29.521h53.313c4.671,0,8.458-3.789,8.458-8.458
		C360.407,405.842,346.24,390.644,328.156,388.989z"/>
</g>
<g>
	<circle style="fill:#1E252B;" cx="423.677" cy="130.609" r="6.226"/>
	<path style="fill:#1E252B;" d="M512,157.895v-12.994c0-6.158-4.778-11.209-10.908-11.67l-61.311-49.569
		c-1.456-1.177-3.272-1.82-5.145-1.82h-37.451c-5.694,0-11.317,0.639-16.805,1.879C376.296,76.153,368.292,71,359.106,71
		c-13.321,0-24.158,10.837-24.158,24.158c0,5.042,1.555,9.729,4.208,13.606c-8.13,9.601-13.768,21.072-16.372,33.349H145.065
		c-18.511,0-35.604,6.173-49.342,16.56H70.382c-25.167,0-47.28,13.288-59.723,33.207c-0.026,0.037-0.056,0.07-0.081,0.109
		c-0.058,0.085-0.104,0.175-0.157,0.262C3.818,202.966,0,215.57,0,229.054v92.954c0,10.265,8.353,18.618,18.618,18.618
		c6.946,0,13.006-3.832,16.206-9.485c-0.322,2.14-0.492,4.32-0.492,6.532v65.626c0,20.791,16.914,37.704,37.703,37.704h53.313
		h57.516c9.176,0,16.641-7.466,16.641-16.642c0-19.555-12.975-36.434-31.167-41.866v-22.987h7.05
		c25.677,0,47.898-16.791,55.235-40.791h30.311v84.582c0,20.79,16.914,37.704,37.704,37.704h53.313c0.488,0,0.969-0.032,1.447-0.073
		v0.073h56.068c9.176,0,16.642-7.466,16.642-16.642c0-20.171-13.426-37.172-32.252-42.201V280.064
		c5.144-6.774,9.427-14.256,12.675-22.296c2.02-0.214,3.93-1.159,5.311-2.743c2.033-2.333,2.575-5.612,1.404-8.476
		c-0.388-0.95-0.737-1.916-1.042-2.894c0.837-0.214,1.668-0.448,2.491-0.704l63.582-15.047c0.036-0.01,0.073-0.019,0.11-0.027
		c19.793-4.974,33.617-22.713,33.617-43.139v-24.567h-0.331C511.883,159.437,512,158.673,512,157.895z M359.106,87.366
		c4.297,0,7.792,3.495,7.792,7.791v7.792h-7.792c-4.296,0-7.791-3.495-7.791-7.792C351.316,90.86,354.81,87.366,359.106,87.366z
		 M337.865,151.2c1.36-12.179,6.489-23.655,14.593-32.824c2.115,0.607,4.343,0.937,6.649,0.937h9.744
		c7.949,0,14.415-6.468,14.415-14.417V99.85c4.536-1.082,9.195-1.642,13.921-1.642h5.592v15.945c0,4.521,3.664,8.184,8.184,8.184
		s8.184-3.663,8.184-8.184V98.209h12.597l50.109,40.513c-0.383,0.553-0.668,1.073-0.885,1.529h-81.853
		c-27.936,0-50.841,21.922-52.435,49.466c-5.939-9.413-9.187-20.387-9.187-31.813C337.494,155.663,337.618,153.409,337.865,151.2z
		 M76.298,179.54H73.18l-0.011-4.501h6.247C78.323,176.499,77.294,178.008,76.298,179.54z M56.807,176.769l0.012,4.676
		c-9.505,2.711-17.847,8.194-24.098,15.52l-3.767-2.523C36.074,185.933,45.756,179.641,56.807,176.769z M16.367,254.557h4.501
		v27.572h-4.501V254.557z M16.367,229.054c0-7.293,1.461-14.248,4.092-20.601l3.827,2.562c-2.196,5.594-3.416,11.675-3.416,18.039
		v9.136h-4.502V229.054z M18.618,324.259c-1.242,0-2.251-1.009-2.251-2.251v-23.513h4.501v23.513
		C20.868,323.249,19.86,324.259,18.618,324.259z M37.235,229.054c0-17.489,13.617-31.848,30.805-33.055
		c-3.209,8.768-4.962,18.233-4.962,28.099v72.038c-11.985,4.524-21.355,14.075-25.842,25.836V229.054z M183.137,424.361
		c0,0.152-0.123,0.275-0.274,0.275h-40.887c0.002-0.093,0.014-0.182,0.014-0.275c0-19.555-12.975-36.434-31.167-41.866v-22.987h7.05
		c13.023,0,25.154-4.327,34.911-11.72c-0.515,1.072-0.812,2.267-0.812,3.536v10.249h-12.503c-4.519,0-8.184,3.663-8.184,8.184
		c0,4.521,3.664,8.184,8.184,8.184h12.501v11.177c0,4.135,3.085,7.619,7.188,8.122C172.829,398.914,183.137,410.573,183.137,424.361
		z M175.388,343.141h-15.233c-0.804,0-1.579,0.12-2.313,0.337c6.987-6.685,12.322-15.142,15.263-24.76h40.072
		C206.639,333.309,192.027,343.141,175.388,343.141z M351.95,424.636h-53.313c-11.766,0-21.337-9.571-21.337-21.337v-55.003h30.529
		c4.519,0,8.184-3.663,8.184-8.184c0-4.521-3.664-8.184-8.184-8.184H277.3v-21.394c0-4.521-3.664-8.184-8.184-8.184H166.675
		c-3.962,0-7.355,2.839-8.055,6.739c-3.539,19.731-20.675,34.052-40.748,34.052h-15.233c-4.519,0-8.184,3.663-8.184,8.184v10.249
		H75.406c-4.519,0-8.184,3.663-8.184,8.184c0,4.521,3.664,8.184,8.184,8.184h19.049v11.177c0,4.135,3.085,7.619,7.188,8.122
		c13.67,1.674,23.979,13.334,23.979,27.12c0,0.152-0.123,0.275-0.275,0.275H72.035c-11.765,0-21.336-9.571-21.336-21.337v-54.705
		h33.267c4.519,0,8.184-3.663,8.184-8.184c0-4.521-3.664-8.184-8.184-8.184H51.257c2.164-10.808,10.608-19.651,21.68-21.967
		c3.793-0.793,6.509-4.135,6.509-8.01v-5.641h36.527c4.519,0,8.184-3.663,8.184-8.184c0-4.521-3.664-8.184-8.184-8.184H79.446
		v-56.143c0-17.59,6.971-33.574,18.279-45.367v53.78c0,4.521,3.664,8.184,8.184,8.184c4.519,0,8.184-3.663,8.184-8.184v-66.243
		c9.232-4.964,19.778-7.789,30.974-7.789h13.408v109.082c0,4.521,3.664,8.184,8.184,8.184c4.519,0,8.184-3.663,8.184-8.184V158.479
		h37.177v71.935c0,4.521,3.664,8.184,8.184,8.184s8.184-3.663,8.184-8.184v-71.935h37.911v109.082c0,4.521,3.664,8.184,8.184,8.184
		c4.519,0,8.184-3.663,8.184-8.184V158.479h31.916v74.031c0,4.521,3.664,8.184,8.184,8.184c4.519,0,8.184-3.663,8.184-8.184v-37.236
		c4.073,7.21,9.342,13.774,15.678,19.415c0.827,22.977,16.502,42.788,38.767,48.797c-12.555,20.523-33.92,34.858-58.32,38.122
		c-4.065,0.543-7.099,4.011-7.099,8.111v46.279h-29.329c-4.519,0-8.184,3.664-8.184,8.184c0,4.521,3.664,8.184,8.184,8.184h29.329
		v16.625c0,4.23,3.225,7.763,7.437,8.15c14.147,1.294,24.815,12.998,24.815,27.222C352.224,424.512,352.101,424.636,351.95,424.636z
		 M409.74,424.361c0,0.152-0.123,0.275-0.275,0.275h-40.887c0.002-0.093,0.014-0.182,0.014-0.275
		c0-20.171-13.426-37.172-32.252-42.201v-33.864h26.319c4.52,0,8.184-3.663,8.184-8.184c0-4.521-3.664-8.184-8.184-8.184H336.34
		v-15.321c15.256-3.218,29.317-10.069,41.148-19.658v59.047h-27.62c-4.52,0-8.184,3.664-8.184,8.184
		c0,4.521,3.664,8.184,8.184,8.184h27.62v16.625c0,4.23,3.225,7.763,7.437,8.15C399.072,398.433,409.74,410.137,409.74,424.361z
		 M474.445,211.991l-63.496,15.028c-0.287,0.058-0.571,0.132-0.853,0.222c-2.62,0.834-5.363,1.365-8.154,1.58
		c-2.186,0.167-4.213,1.206-5.627,2.882c-0.874,1.037-1.47,2.263-1.748,3.565c-1.365-1.062-2.66-2.225-3.875-3.483
		c-2.284-2.367-5.762-3.134-8.831-1.954c-3.069,1.183-5.132,4.086-5.237,7.374l-0.01,0.282c-0.016,0.489-0.032,0.979-0.032,1.473
		c0,0.725,0.014,1.447,0.044,2.168c-8.438-6.7-13.676-17.026-13.676-28.348c0-2.72,0.315-5.464,0.936-8.157
		c0.279-1.21,0.279-2.468,0-3.678c-0.621-2.697-0.936-5.443-0.936-8.162c0-19.939,16.223-36.162,36.164-36.162h87.192l4.113,3.937
		c1.546,1.481,3.314,2.671,5.216,3.576v20.607C495.633,197.631,486.924,208.832,474.445,211.991z"/>
</g>
<g>
</g>
<g>
</g>
<g>
</g>
<g>
</g>
<g>
</g>
<g>
</g>
<g>
</g>
<g>
</g>
<g>
</g>
<g>
</g>
<g>
</g>
<g>
</g>
<g>
</g>
<g>
</g>
<g>
</g>
</svg>
